<mxfile host="app.diagrams.net" modified="2020-11-14T16:29:35.477Z" agent="5.0 (Windows NT 10.0; Win64; x64) AppleWebKit/537.36 (KHTML, like Gecko) Chrome/86.0.4240.193 Safari/537.36 Edg/86.0.622.68" etag="iDAzgPm--TMWtVClJtPv" version="13.9.7" type="github">
  <diagram id="vquQKdVWXhYnO52lbltb" name="Page-1">
    <mxGraphModel dx="1447" dy="820" grid="1" gridSize="10" guides="1" tooltips="1" connect="1" arrows="1" fold="1" page="1" pageScale="1" pageWidth="850" pageHeight="1100" math="0" shadow="0">
      <root>
        <mxCell id="0" />
        <mxCell id="1" parent="0" />
        <mxCell id="sXNSGTSHd9fLEvyafMWS-5" style="edgeStyle=orthogonalEdgeStyle;rounded=0;orthogonalLoop=1;jettySize=auto;html=1;entryX=0;entryY=0.5;entryDx=0;entryDy=0;" parent="1" source="rURcyh2d6qXMNQEJasT1-4" target="rURcyh2d6qXMNQEJasT1-7" edge="1">
          <mxGeometry relative="1" as="geometry">
            <Array as="points">
              <mxPoint x="150" y="100" />
            </Array>
          </mxGeometry>
        </mxCell>
        <mxCell id="sXNSGTSHd9fLEvyafMWS-6" style="edgeStyle=orthogonalEdgeStyle;rounded=0;orthogonalLoop=1;jettySize=auto;html=1;exitX=0.75;exitY=0;exitDx=0;exitDy=0;entryX=0;entryY=0.5;entryDx=0;entryDy=0;" parent="1" source="rURcyh2d6qXMNQEJasT1-4" target="sXNSGTSHd9fLEvyafMWS-1" edge="1">
          <mxGeometry relative="1" as="geometry" />
        </mxCell>
        <mxCell id="sXNSGTSHd9fLEvyafMWS-7" style="edgeStyle=orthogonalEdgeStyle;rounded=0;orthogonalLoop=1;jettySize=auto;html=1;exitX=1;exitY=0;exitDx=0;exitDy=0;entryX=0;entryY=0.5;entryDx=0;entryDy=0;" parent="1" source="rURcyh2d6qXMNQEJasT1-4" target="sXNSGTSHd9fLEvyafMWS-2" edge="1">
          <mxGeometry relative="1" as="geometry">
            <Array as="points">
              <mxPoint x="240" y="510" />
              <mxPoint x="240" y="420" />
              <mxPoint x="370" y="420" />
              <mxPoint x="370" y="500" />
            </Array>
          </mxGeometry>
        </mxCell>
        <mxCell id="sXNSGTSHd9fLEvyafMWS-8" style="edgeStyle=orthogonalEdgeStyle;rounded=0;orthogonalLoop=1;jettySize=auto;html=1;exitX=1;exitY=0.5;exitDx=0;exitDy=0;entryX=0;entryY=0.5;entryDx=0;entryDy=0;" parent="1" source="rURcyh2d6qXMNQEJasT1-4" target="sXNSGTSHd9fLEvyafMWS-3" edge="1">
          <mxGeometry relative="1" as="geometry" />
        </mxCell>
        <mxCell id="sXNSGTSHd9fLEvyafMWS-9" style="edgeStyle=orthogonalEdgeStyle;rounded=0;orthogonalLoop=1;jettySize=auto;html=1;entryX=0;entryY=0.5;entryDx=0;entryDy=0;" parent="1" source="rURcyh2d6qXMNQEJasT1-4" target="sXNSGTSHd9fLEvyafMWS-4" edge="1">
          <mxGeometry relative="1" as="geometry">
            <Array as="points">
              <mxPoint x="180" y="900" />
            </Array>
          </mxGeometry>
        </mxCell>
        <mxCell id="rURcyh2d6qXMNQEJasT1-4" value="Faculty" style="html=1;dashed=0;whitespace=wrap;" parent="1" vertex="1">
          <mxGeometry x="40" y="510" width="220" height="110" as="geometry" />
        </mxCell>
        <mxCell id="H9YB3GkS0WNPwWuaGp6q-2" style="edgeStyle=orthogonalEdgeStyle;rounded=0;orthogonalLoop=1;jettySize=auto;html=1;entryX=0;entryY=0.25;entryDx=0;entryDy=0;" edge="1" parent="1" source="rURcyh2d6qXMNQEJasT1-7" target="H9YB3GkS0WNPwWuaGp6q-1">
          <mxGeometry relative="1" as="geometry" />
        </mxCell>
        <mxCell id="rURcyh2d6qXMNQEJasT1-7" value="&lt;div&gt;&lt;span&gt;Create Course Content&lt;/span&gt;&lt;/div&gt;&lt;div&gt;1.0&lt;/div&gt;" style="shape=ellipse;html=1;dashed=0;whitespace=wrap;perimeter=ellipsePerimeter;align=center;whiteSpace=wrap;" parent="1" vertex="1">
          <mxGeometry x="480" y="40" width="120" height="120" as="geometry" />
        </mxCell>
        <mxCell id="H9YB3GkS0WNPwWuaGp6q-3" style="edgeStyle=orthogonalEdgeStyle;rounded=0;orthogonalLoop=1;jettySize=auto;html=1;entryX=0;entryY=0.75;entryDx=0;entryDy=0;" edge="1" parent="1" source="sXNSGTSHd9fLEvyafMWS-1" target="H9YB3GkS0WNPwWuaGp6q-1">
          <mxGeometry relative="1" as="geometry" />
        </mxCell>
        <mxCell id="H9YB3GkS0WNPwWuaGp6q-4" value="Recorded Live Lectures" style="edgeLabel;html=1;align=center;verticalAlign=middle;resizable=0;points=[];" vertex="1" connectable="0" parent="H9YB3GkS0WNPwWuaGp6q-3">
          <mxGeometry x="-0.1614" y="-1" relative="1" as="geometry">
            <mxPoint as="offset" />
          </mxGeometry>
        </mxCell>
        <mxCell id="sXNSGTSHd9fLEvyafMWS-1" value="Deliver Live Lectures&lt;br&gt;2.0" style="shape=ellipse;html=1;dashed=0;whitespace=wrap;perimeter=ellipsePerimeter;align=center;whiteSpace=wrap;" parent="1" vertex="1">
          <mxGeometry x="480" y="240" width="120" height="120" as="geometry" />
        </mxCell>
        <mxCell id="H9YB3GkS0WNPwWuaGp6q-5" style="edgeStyle=orthogonalEdgeStyle;rounded=0;orthogonalLoop=1;jettySize=auto;html=1;entryX=0.25;entryY=1;entryDx=0;entryDy=0;" edge="1" parent="1" source="sXNSGTSHd9fLEvyafMWS-2" target="H9YB3GkS0WNPwWuaGp6q-1">
          <mxGeometry relative="1" as="geometry">
            <mxPoint x="740" y="220" as="targetPoint" />
          </mxGeometry>
        </mxCell>
        <mxCell id="sXNSGTSHd9fLEvyafMWS-2" value="Create Assessments&lt;br&gt;3.0" style="shape=ellipse;html=1;dashed=0;whitespace=wrap;perimeter=ellipsePerimeter;align=center;whiteSpace=wrap;" parent="1" vertex="1">
          <mxGeometry x="480" y="440" width="120" height="120" as="geometry" />
        </mxCell>
        <mxCell id="H9YB3GkS0WNPwWuaGp6q-6" style="edgeStyle=orthogonalEdgeStyle;rounded=0;orthogonalLoop=1;jettySize=auto;html=1;entryX=0.57;entryY=0.967;entryDx=0;entryDy=0;entryPerimeter=0;" edge="1" parent="1" source="sXNSGTSHd9fLEvyafMWS-3" target="H9YB3GkS0WNPwWuaGp6q-1">
          <mxGeometry relative="1" as="geometry" />
        </mxCell>
        <mxCell id="sXNSGTSHd9fLEvyafMWS-3" value="Upload Result&lt;br&gt;4.0" style="shape=ellipse;html=1;dashed=0;whitespace=wrap;perimeter=ellipsePerimeter;align=center;whiteSpace=wrap;" parent="1" vertex="1">
          <mxGeometry x="480" y="640" width="120" height="120" as="geometry" />
        </mxCell>
        <mxCell id="H9YB3GkS0WNPwWuaGp6q-15" style="edgeStyle=orthogonalEdgeStyle;rounded=0;orthogonalLoop=1;jettySize=auto;html=1;entryX=0;entryY=0.5;entryDx=0;entryDy=0;" edge="1" parent="1" source="sXNSGTSHd9fLEvyafMWS-4" target="H9YB3GkS0WNPwWuaGp6q-7">
          <mxGeometry relative="1" as="geometry" />
        </mxCell>
        <mxCell id="sXNSGTSHd9fLEvyafMWS-4" value="Manage Students&lt;br&gt;5.0" style="shape=ellipse;html=1;dashed=0;whitespace=wrap;perimeter=ellipsePerimeter;align=center;whiteSpace=wrap;" parent="1" vertex="1">
          <mxGeometry x="480" y="840" width="120" height="120" as="geometry" />
        </mxCell>
        <mxCell id="H9YB3GkS0WNPwWuaGp6q-10" style="edgeStyle=orthogonalEdgeStyle;rounded=0;orthogonalLoop=1;jettySize=auto;html=1;exitX=0.75;exitY=1;exitDx=0;exitDy=0;entryX=0.548;entryY=0.023;entryDx=0;entryDy=0;entryPerimeter=0;" edge="1" parent="1" source="H9YB3GkS0WNPwWuaGp6q-1" target="H9YB3GkS0WNPwWuaGp6q-7">
          <mxGeometry relative="1" as="geometry">
            <mxPoint x="785" y="865" as="targetPoint" />
            <Array as="points">
              <mxPoint x="785" y="886" />
              <mxPoint x="785" y="886" />
            </Array>
          </mxGeometry>
        </mxCell>
        <mxCell id="H9YB3GkS0WNPwWuaGp6q-11" value="Course Completed" style="edgeLabel;html=1;align=center;verticalAlign=middle;resizable=0;points=[];rotation=-90;" vertex="1" connectable="0" parent="H9YB3GkS0WNPwWuaGp6q-10">
          <mxGeometry x="0.6916" y="3" relative="1" as="geometry">
            <mxPoint x="-8" y="-61.9" as="offset" />
          </mxGeometry>
        </mxCell>
        <mxCell id="H9YB3GkS0WNPwWuaGp6q-12" value="Course Completed" style="edgeLabel;html=1;align=center;verticalAlign=middle;resizable=0;points=[];rotation=-90;" vertex="1" connectable="0" parent="H9YB3GkS0WNPwWuaGp6q-10">
          <mxGeometry x="0.6916" y="3" relative="1" as="geometry">
            <mxPoint x="-8" y="-61.9" as="offset" />
          </mxGeometry>
        </mxCell>
        <mxCell id="H9YB3GkS0WNPwWuaGp6q-13" value="Course Completed" style="edgeLabel;html=1;align=center;verticalAlign=middle;resizable=0;points=[];rotation=-90;" vertex="1" connectable="0" parent="H9YB3GkS0WNPwWuaGp6q-10">
          <mxGeometry x="0.6916" y="3" relative="1" as="geometry">
            <mxPoint x="-8" y="-61.9" as="offset" />
          </mxGeometry>
        </mxCell>
        <mxCell id="H9YB3GkS0WNPwWuaGp6q-1" value="Course Repo" style="html=1;dashed=0;whitespace=wrap;shape=partialRectangle;right=0;left=0;" vertex="1" parent="1">
          <mxGeometry x="710" y="180" width="100" height="30" as="geometry" />
        </mxCell>
        <mxCell id="H9YB3GkS0WNPwWuaGp6q-7" value="Student DB" style="html=1;dashed=0;whitespace=wrap;shape=partialRectangle;right=0;left=0;" vertex="1" parent="1">
          <mxGeometry x="730" y="885" width="100" height="30" as="geometry" />
        </mxCell>
      </root>
    </mxGraphModel>
  </diagram>
</mxfile>
